<svg width="78" height="24" viewBox="0 0 78 24" fill="none" xmlns="http://www.w3.org/2000/svg">
<path d="M71.3994 0L54.7969 23.7857H59.8942L76.5829 0H71.3994Z" fill="white"/>
<path d="M60.4252 0L65.3102 7.00885L62.7615 10.8319L55.2217 0H60.4252Z" fill="url(#paint0_linear_260_41)"/>
<path d="M71.8935 23.7876L66.4775 16.0354L69.0262 12.3186L76.9908 23.7876H71.8935Z" fill="url(#paint1_linear_260_41)"/>
<path fill-rule="evenodd" clip-rule="evenodd" d="M48.8493 0H53.3095V23.7857H48.8493V22.8973C47.5611 23.6003 46.0823 24 44.5095 24C39.5165 24 35.4688 19.9706 35.4688 15C35.4688 10.0294 39.5165 6 44.5095 6C46.0823 6 47.5611 6.39974 48.8493 7.1027V0ZM44.462 20.0499C47.2899 20.0499 49.5824 17.7678 49.5824 14.9526C49.5824 12.1374 47.2899 9.85525 44.462 9.85525C41.634 9.85525 39.3415 12.1374 39.3415 14.9526C39.3415 17.7678 41.634 20.0499 44.462 20.0499Z" fill="white"/>
<path d="M35.9124 0L19.3271 23.7857H24.5267L41.096 0H35.9124Z" fill="white"/>
<path d="M24.5312 0L29.7347 7.22124L26.8674 11.2566L19.1152 0H24.5312Z" fill="url(#paint2_linear_260_41)"/>
<path fill-rule="evenodd" clip-rule="evenodd" d="M13.3805 0H17.8407V23.7857H13.3805V22.8973C12.0924 23.6003 10.6135 24 9.04084 24C4.04772 24 0 19.9706 0 15C0 10.0294 4.04772 6 9.04084 6C10.6135 6 12.0924 6.39974 13.3805 7.1027V0ZM8.99323 20.0499C11.8212 20.0499 14.1137 17.7678 14.1137 14.9526C14.1137 12.1374 11.8212 9.85525 8.99323 9.85525C6.16526 9.85525 3.87275 12.1374 3.87275 14.9526C3.87275 17.7678 6.16526 20.0499 8.99323 20.0499Z" fill="white"/>
<defs>
<linearGradient id="paint0_linear_260_41" x1="59.2571" y1="1.48673" x2="66.25" y2="9.92884" gradientUnits="userSpaceOnUse">
<stop stop-color="white"/>
<stop offset="1" stop-color="white" stop-opacity="0.55"/>
</linearGradient>
<linearGradient id="paint1_linear_260_41" x1="73.0616" y1="21.9823" x2="64.4698" y2="10.3997" gradientUnits="userSpaceOnUse">
<stop stop-color="#6966FF"/>
<stop offset="1" stop-color="#6966FF" stop-opacity="0.36"/>
</linearGradient>
<linearGradient id="paint2_linear_260_41" x1="23.363" y1="1.54503" x2="30.6123" y2="10.4096" gradientUnits="userSpaceOnUse">
<stop stop-color="white"/>
<stop offset="1" stop-color="white" stop-opacity="0.55"/>
</linearGradient>
</defs>
</svg>
