<svg width="24" height="24" viewBox="0 0 24 24" fill="none" xmlns="http://www.w3.org/2000/svg">
<g clip-path="url(#clip0_260_112)">
<path d="M19.0161 0.131104H4.98332C2.30338 0.131104 0.130859 2.30362 0.130859 4.98356V19.0163C0.130859 21.6963 2.30338 23.8688 4.98332 23.8688H19.0161C21.696 23.8688 23.8686 21.6963 23.8686 19.0163V4.98356C23.8686 2.30362 21.696 0.131104 19.0161 0.131104Z" fill="url(#paint0_linear_260_112)"/>
<path d="M15.1231 5.6394L5.90137 18.622H8.73265L18.0022 5.6394H15.1231Z" fill="white"/>
<path d="M9.02796 5.6394L11.7413 9.46493L10.3256 11.5516L6.1377 5.6394H9.02796Z" fill="url(#paint1_linear_260_112)"/>
<path d="M15.3978 18.623L12.3896 14.3918L13.8053 12.363L18.2292 18.623H15.3978Z" fill="url(#paint2_linear_260_112)"/>
<path d="M19.0161 0.131104H4.98332C2.30338 0.131104 0.130859 2.30362 0.130859 4.98356V19.0163C0.130859 21.6963 2.30338 23.8688 4.98332 23.8688H19.0161C21.696 23.8688 23.8686 21.6963 23.8686 19.0163V4.98356C23.8686 2.30362 21.696 0.131104 19.0161 0.131104Z" stroke="#2D2D3D" stroke-width="2"/>
</g>
<defs>
<linearGradient id="paint0_linear_260_112" x1="19.344" y1="-3.21316" x2="13.5079" y2="21.0491" gradientUnits="userSpaceOnUse">
<stop stop-color="#2C2C3D"/>
<stop offset="1" stop-color="#1A1A27"/>
</linearGradient>
<linearGradient id="paint1_linear_260_112" x1="8.37912" y1="6.45088" x2="12.1831" y2="11.1241" gradientUnits="userSpaceOnUse">
<stop stop-color="white"/>
<stop offset="1" stop-color="white" stop-opacity="0.55"/>
</linearGradient>
<linearGradient id="paint2_linear_260_112" x1="16.0467" y1="17.6377" x2="11.3816" y2="11.2376" gradientUnits="userSpaceOnUse">
<stop stop-color="#6966FF"/>
<stop offset="1" stop-color="#6966FF" stop-opacity="0.36"/>
</linearGradient>
<clipPath id="clip0_260_112">
<rect width="24" height="24" fill="white"/>
</clipPath>
</defs>
</svg>
