<svg width="124" height="24" viewBox="0 0 124 24" fill="none" xmlns="http://www.w3.org/2000/svg">
<path d="M9.03516 19.3047C3.96094 19.3047 0.808594 16.0586 0.808594 10.5391V10.5273C0.808594 5.00781 3.98438 1.78516 9.03516 1.78516C13.4531 1.78516 16.5117 4.62109 16.6641 8.40625V8.52344H12.5273L12.5039 8.34766C12.2344 6.58984 11.0039 5.34766 9.03516 5.34766C6.67969 5.34766 5.19141 7.28125 5.19141 10.5156V10.5273C5.19141 13.7969 6.69141 15.7422 9.04688 15.7422C10.9102 15.7422 12.2344 14.582 12.5273 12.6953L12.5508 12.5664H16.6875L16.6758 12.6953C16.5234 16.4805 13.4297 19.3047 9.03516 19.3047ZM20.543 4.86719C19.3477 4.86719 18.4219 3.92969 18.4219 2.81641C18.4219 1.70312 19.3477 0.777344 20.543 0.777344C21.75 0.777344 22.6641 1.70312 22.6641 2.81641C22.6641 3.92969 21.75 4.86719 20.543 4.86719ZM18.4688 19V6.23828H22.6172V19H18.4688ZM24.6445 23.1016V6.23828H28.8047V8.51172H28.8984C29.543 6.91797 30.9023 5.96875 32.7188 5.96875C35.9414 5.96875 37.8164 8.39453 37.8164 12.6133V12.625C37.8164 16.8203 35.9531 19.2695 32.7656 19.2695C30.9258 19.2695 29.5195 18.3438 28.8867 16.8086H28.8047V23.1016H24.6445ZM31.1953 15.8945C32.6602 15.8945 33.5977 14.6406 33.5977 12.625V12.6133C33.5977 10.5742 32.6602 9.35547 31.1953 9.35547C29.7539 9.35547 28.7812 10.5859 28.7812 12.625V12.6367C28.7812 14.6523 29.7422 15.8945 31.1953 15.8945ZM39.5273 19V2.08984H43.6875V8.53516H43.7695C44.4023 6.87109 45.7266 5.96875 47.6484 5.96875C50.4375 5.96875 52.0781 7.82031 52.0781 10.8906V19H47.918V11.7812C47.918 10.2695 47.1914 9.35547 45.8203 9.35547C44.5078 9.35547 43.6875 10.3633 43.6875 11.7695V19H39.5273ZM60.1523 19.2695C56.1211 19.2695 53.6719 16.75 53.6719 12.625V12.6133C53.6719 8.51172 56.1328 5.96875 60.0117 5.96875C63.8672 5.96875 66.3164 8.48828 66.3164 12.3555V13.5742H57.7383C57.7852 15.2969 58.7227 16.3164 60.2344 16.3164C61.5703 16.3164 62.2969 15.5547 62.4844 15.0273L62.4961 14.9688H66.2461L66.2109 15.1094C65.8242 16.8789 64.2188 19.2695 60.1523 19.2695ZM60.1055 8.92188C58.8867 8.92188 58.0078 9.71875 57.7969 11.125H62.4023C62.1914 9.69531 61.3242 8.92188 60.1055 8.92188ZM67.9336 19V6.23828H72.0938V8.5H72.1758C72.5273 6.88281 73.5352 5.96875 75.0352 5.96875C75.4336 5.96875 75.7969 6.02734 76.1133 6.13281V9.68359C75.7617 9.54297 75.2812 9.44922 74.7891 9.44922C73.043 9.44922 72.0938 10.4102 72.0938 12.2266V19H67.9336ZM77.9648 19V2.08984H79.5586V17.5469H88.0312V19H77.9648ZM93.4219 19.2227C91.0195 19.2227 89.3789 17.7812 89.3789 15.625V15.6016C89.3789 13.5273 90.9492 12.2734 93.75 12.0859L97.5469 11.8516V10.7969C97.5469 9.03906 96.4336 7.97266 94.5352 7.97266C92.7656 7.97266 91.6055 8.82812 91.3477 10.2109L91.3242 10.3281H89.8242L89.8359 10.1875C90.0703 8.08984 91.8047 6.58984 94.5586 6.58984C97.3477 6.58984 99.0938 8.16016 99.0938 10.6562V19H97.5469V16.7734H97.5C96.832 18.2266 95.2266 19.2227 93.4219 19.2227ZM90.9609 15.625C90.9609 16.9609 92.0859 17.8633 93.7383 17.8633C95.8711 17.8633 97.5469 16.3633 97.5469 14.418V13.0703L93.9375 13.3164C92.0273 13.4336 90.9609 14.2656 90.9609 15.6016V15.625ZM107.555 19.2227C105.633 19.2227 104.098 18.1445 103.395 16.4219H103.359V19H101.801V2.08984H103.359V9.35547H103.395C104.086 7.66797 105.656 6.58984 107.566 6.58984C110.613 6.58984 112.711 9.08594 112.711 12.8945V12.9062C112.711 16.7148 110.625 19.2227 107.555 19.2227ZM107.262 17.8398C109.605 17.8398 111.117 15.918 111.117 12.9062V12.8945C111.117 9.90625 109.605 7.97266 107.262 7.97266C104.988 7.97266 103.348 9.96484 103.348 12.8945V12.9062C103.348 15.8477 104.965 17.8398 107.262 17.8398ZM118.957 19.2227C116.191 19.2227 114.422 17.7461 114.188 15.5898L114.176 15.4844H115.723L115.746 15.5898C115.992 16.9961 117.129 17.9102 118.969 17.9102C120.809 17.9102 121.98 17.0664 121.98 15.7891V15.7773C121.98 14.7227 121.395 14.1484 119.766 13.7617L117.926 13.3164C115.629 12.7656 114.527 11.7578 114.527 10.0703V10.0586C114.527 8.03125 116.32 6.58984 118.863 6.58984C121.465 6.58984 123.129 8.10156 123.328 10.1992L123.34 10.3281H121.852L121.84 10.2461C121.641 8.82812 120.562 7.90234 118.863 7.90234C117.211 7.90234 116.109 8.75781 116.109 10V10.0117C116.109 10.9844 116.766 11.6055 118.371 11.9922L120.211 12.4258C122.637 13.0117 123.562 13.9609 123.562 15.6719V15.6836C123.562 17.7578 121.629 19.2227 118.957 19.2227Z" fill="#FCFCFD"/>
</svg>
