<svg width="24" height="24" viewBox="0 0 24 24" fill="none" xmlns="http://www.w3.org/2000/svg">
<rect width="24" height="24" rx="2" fill="#FCFCFD"/>
<path d="M13.649 10.7821L19.5536 4.06603L19.6996 3.9H19.4785H18.0671H18.0218L17.992 3.93397L12.904 9.72109L8.84621 3.94253L8.81634 3.9H8.76437H4H3.80759L3.91816 4.05747L10.1195 12.8885L3.9249 19.934L3.77892 20.1H4H5.41155H5.45678L5.48665 20.066L10.8644 13.9493L15.1538 20.0575L15.1837 20.1H15.2356H20H20.1924L20.0818 19.9425L13.649 10.7821ZM15.9511 18.9075L11.6889 12.9421V12.9418L11.6702 12.9157L11.0373 12.0299L6.1145 5.13974H8.03675L12.0708 10.7861L12.1522 10.728L12.0708 10.7861L12.7037 11.6719L17.8734 18.9075H15.9511Z" fill="#00040E" stroke="black" stroke-width="0.2"/>
</svg>
