<svg width="24" height="24" viewBox="0 0 24 24" fill="none" xmlns="http://www.w3.org/2000/svg">
<path d="M0 12H6C9.31371 12 12 14.6863 12 18V24H6C2.68629 24 0 21.3137 0 18V12Z" fill="#175CD3"/>
<path d="M0 6C0 2.68629 2.68629 0 6 0H12V6C12 9.31371 9.31371 12 6 12H0V6Z" fill="#2E90FA"/>
<path d="M12 0H18C21.3137 0 24 2.68629 24 6C24 9.31371 21.3137 12 18 12C14.6863 12 12 9.31371 12 6V0Z" fill="#8DFBAF"/>
<path d="M12 18C12 14.6863 14.6863 12 18 12C21.3137 12 24 14.6863 24 18C24 21.3137 21.3137 24 18 24H12V18Z" fill="#1ADEC6"/>
</svg>
