<svg width="194" height="14" viewBox="0 0 194 14" fill="none" xmlns="http://www.w3.org/2000/svg">
<path d="M3.35645 11V2.45508H0.334961V1.13574H7.90234V2.45508H4.8877V11H3.35645ZM10.2812 11.1436C8.16895 11.1436 6.89062 9.70117 6.89062 7.43164V7.4248C6.89062 5.17578 8.18945 3.67188 10.2061 3.67188C12.2227 3.67188 13.46 5.12109 13.46 7.28125V7.78027H8.36719C8.39453 9.14062 9.13965 9.93359 10.3154 9.93359C11.1904 9.93359 11.7715 9.48242 11.9561 8.94238L11.9766 8.8877H13.3779L13.3643 8.96289C13.1318 10.1045 12.0244 11.1436 10.2812 11.1436ZM10.2129 4.88184C9.25586 4.88184 8.51758 5.53125 8.3877 6.73438H11.9971C11.874 5.49023 11.1768 4.88184 10.2129 4.88184ZM14.6084 11V3.80859H16.085V5.03906H16.1191C16.3516 4.19824 16.9531 3.67188 17.7734 3.67188C17.9854 3.67188 18.1699 3.70605 18.2861 3.72656V5.10059C18.1699 5.05273 17.9102 5.01855 17.623 5.01855C16.6729 5.01855 16.085 5.64062 16.085 6.71387V11H14.6084ZM19.2021 11V3.80859H20.6787V4.92285H20.7129C21.0205 4.1709 21.752 3.67188 22.6953 3.67188C23.6865 3.67188 24.4111 4.18457 24.6982 5.08691H24.7324C25.1016 4.21191 25.9492 3.67188 26.9746 3.67188C28.3965 3.67188 29.3262 4.61523 29.3262 6.05762V11H27.8428V6.41309C27.8428 5.47656 27.3438 4.93652 26.4688 4.93652C25.5938 4.93652 24.9854 5.59277 24.9854 6.50195V11H23.5361V6.30371C23.5361 5.46973 23.0098 4.93652 22.1758 4.93652C21.3008 4.93652 20.6787 5.62695 20.6787 6.55664V11H19.2021ZM33.4482 11.1436C31.6504 11.1436 30.5977 10.2549 30.4473 8.94238L30.4404 8.88086H31.9033L31.917 8.94922C32.0537 9.6123 32.5459 10.002 33.4551 10.002C34.3438 10.002 34.877 9.63281 34.877 9.05176V9.04492C34.877 8.58008 34.6172 8.31348 33.8447 8.12891L32.6689 7.8623C31.3018 7.54785 30.625 6.8916 30.625 5.8457V5.83887C30.625 4.55371 31.7461 3.67188 33.4004 3.67188C35.1025 3.67188 36.1279 4.62207 36.2031 5.8457L36.21 5.92773H34.8223L34.8154 5.87988C34.7266 5.25098 34.2344 4.81348 33.4004 4.81348C32.6074 4.81348 32.1084 5.18945 32.1084 5.76367V5.77051C32.1084 6.21484 32.4023 6.51562 33.1748 6.7002L34.3438 6.9668C35.8135 7.30859 36.374 7.88965 36.374 8.92188V8.92871C36.374 10.2412 35.1436 11.1436 33.4482 11.1436ZM44.8096 11.1641C41.9658 11.1641 40.1885 9.20898 40.1885 6.07129V6.05762C40.1885 2.92676 41.9727 0.97168 44.8096 0.97168C47.6533 0.97168 49.4307 2.93359 49.4307 6.05762V6.07129C49.4307 9.20215 47.6602 11.1641 44.8096 11.1641ZM44.8096 9.81055C46.7031 9.81055 47.8652 8.34766 47.8652 6.07129V6.05762C47.8652 3.76758 46.6826 2.3252 44.8096 2.3252C42.9434 2.3252 41.7471 3.76074 41.7471 6.05762V6.07129C41.7471 8.36816 42.9365 9.81055 44.8096 9.81055ZM51.1465 11V4.98438H50.1553V3.80859H51.1465V3.04297C51.1465 1.64844 51.8027 0.992188 53.2656 0.992188C53.5664 0.992188 53.8945 1.01953 54.0928 1.05371V2.14746C53.9492 2.12695 53.7646 2.11328 53.5801 2.11328C52.917 2.11328 52.6025 2.43457 52.6025 3.07031V3.80859H54.0654V4.98438H52.6299V11H51.1465ZM62.248 11.1641C59.7734 11.1641 58.249 9.69434 58.249 7.53418V1.13574H59.7803V7.41113C59.7803 8.84668 60.6758 9.81055 62.248 9.81055C63.8203 9.81055 64.709 8.84668 64.709 7.41113V1.13574H66.2334V7.53418C66.2334 9.69434 64.7295 11.1641 62.248 11.1641ZM70.4307 11.1436C68.6328 11.1436 67.5801 10.2549 67.4297 8.94238L67.4229 8.88086H68.8857L68.8994 8.94922C69.0361 9.6123 69.5283 10.002 70.4375 10.002C71.3262 10.002 71.8594 9.63281 71.8594 9.05176V9.04492C71.8594 8.58008 71.5996 8.31348 70.8271 8.12891L69.6514 7.8623C68.2842 7.54785 67.6074 6.8916 67.6074 5.8457V5.83887C67.6074 4.55371 68.7285 3.67188 70.3828 3.67188C72.085 3.67188 73.1104 4.62207 73.1855 5.8457L73.1924 5.92773H71.8047L71.7979 5.87988C71.709 5.25098 71.2168 4.81348 70.3828 4.81348C69.5898 4.81348 69.0908 5.18945 69.0908 5.76367V5.77051C69.0908 6.21484 69.3848 6.51562 70.1572 6.7002L71.3262 6.9668C72.7959 7.30859 73.3564 7.88965 73.3564 8.92188V8.92871C73.3564 10.2412 72.126 11.1436 70.4307 11.1436ZM77.5742 11.1436C75.4619 11.1436 74.1836 9.70117 74.1836 7.43164V7.4248C74.1836 5.17578 75.4824 3.67188 77.499 3.67188C79.5156 3.67188 80.7529 5.12109 80.7529 7.28125V7.78027H75.6602C75.6875 9.14062 76.4326 9.93359 77.6084 9.93359C78.4834 9.93359 79.0645 9.48242 79.249 8.94238L79.2695 8.8877H80.6709L80.6572 8.96289C80.4248 10.1045 79.3174 11.1436 77.5742 11.1436ZM77.5059 4.88184C76.5488 4.88184 75.8105 5.53125 75.6807 6.73438H79.29C79.167 5.49023 78.4697 4.88184 77.5059 4.88184ZM110.899 11V1.13574H114.57C116.505 1.13574 117.845 2.43457 117.845 4.36914V4.38281C117.845 6.31055 116.505 7.62988 114.57 7.62988H112.431V11H110.899ZM114.188 2.42773H112.431V6.34473H114.188C115.521 6.34473 116.286 5.62695 116.286 4.38965V4.37598C116.286 3.14551 115.521 2.42773 114.188 2.42773ZM119.007 11V3.80859H120.483V5.03906H120.518C120.75 4.19824 121.352 3.67188 122.172 3.67188C122.384 3.67188 122.568 3.70605 122.685 3.72656V5.10059C122.568 5.05273 122.309 5.01855 122.021 5.01855C121.071 5.01855 120.483 5.64062 120.483 6.71387V11H119.007ZM124.4 2.70117C123.922 2.70117 123.539 2.31836 123.539 1.85352C123.539 1.38184 123.922 0.999023 124.4 0.999023C124.886 0.999023 125.262 1.38184 125.262 1.85352C125.262 2.31836 124.886 2.70117 124.4 2.70117ZM123.662 11V3.80859H125.139V11H123.662ZM128.639 11L126.048 3.80859H127.62L129.425 9.55762H129.459L131.264 3.80859H132.802L130.225 11H128.639ZM135.611 11.1299C134.176 11.1299 133.212 10.248 133.212 8.95605V8.94238C133.212 7.69141 134.183 6.92578 135.885 6.82324L137.84 6.70703V6.16699C137.84 5.37402 137.327 4.89551 136.411 4.89551C135.557 4.89551 135.03 5.29883 134.907 5.87305L134.894 5.93457H133.499L133.506 5.85938C133.608 4.62207 134.682 3.67188 136.452 3.67188C138.209 3.67188 139.323 4.60156 139.323 6.04395V11H137.84V9.86523H137.812C137.396 10.6377 136.562 11.1299 135.611 11.1299ZM134.702 8.92188C134.702 9.55078 135.222 9.94727 136.015 9.94727C137.054 9.94727 137.84 9.24316 137.84 8.30664V7.74609L136.083 7.85547C135.194 7.91016 134.702 8.2998 134.702 8.9082V8.92188ZM143.849 11.1436C141.75 11.1436 140.438 9.70117 140.438 7.39746V7.39062C140.438 5.11426 141.777 3.67188 143.828 3.67188C145.681 3.67188 146.802 4.86133 146.925 6.21484L146.932 6.2627H145.523L145.51 6.20801C145.353 5.50391 144.806 4.90918 143.842 4.90918C142.693 4.90918 141.948 5.86621 141.948 7.4043V7.41113C141.948 8.9834 142.707 9.90625 143.849 9.90625C144.758 9.90625 145.339 9.37988 145.517 8.60059L145.523 8.5459H146.945L146.938 8.59375C146.781 10.0361 145.578 11.1436 143.849 11.1436ZM148.839 13.3994C148.552 13.3994 148.244 13.3652 148.066 13.3311V12.1758C148.183 12.2031 148.354 12.2305 148.552 12.2305C149.249 12.2305 149.632 12.0459 149.878 11.3486L150.001 11.0068L147.383 3.80859H148.982L150.794 9.66016H150.842L152.653 3.80859H154.212L151.532 11.335C150.999 12.8252 150.247 13.3994 148.839 13.3994ZM158.095 11V1.13574H161.766C163.7 1.13574 165.04 2.43457 165.04 4.36914V4.38281C165.04 6.31055 163.7 7.62988 161.766 7.62988H159.626V11H158.095ZM161.383 2.42773H159.626V6.34473H161.383C162.716 6.34473 163.481 5.62695 163.481 4.38965V4.37598C163.481 3.14551 162.716 2.42773 161.383 2.42773ZM168.978 11.1436C166.913 11.1436 165.566 9.71484 165.566 7.4043V7.39062C165.566 5.09375 166.927 3.67188 168.971 3.67188C171.021 3.67188 172.389 5.08691 172.389 7.39062V7.4043C172.389 9.72168 171.035 11.1436 168.978 11.1436ZM168.984 9.90625C170.14 9.90625 170.878 8.99023 170.878 7.4043V7.39062C170.878 5.81836 170.126 4.90918 168.971 4.90918C167.836 4.90918 167.077 5.81836 167.077 7.39062V7.4043C167.077 8.99707 167.829 9.90625 168.984 9.90625ZM173.585 11V1.13574H175.062V11H173.585ZM177.379 2.70117C176.9 2.70117 176.518 2.31836 176.518 1.85352C176.518 1.38184 176.9 0.999023 177.379 0.999023C177.864 0.999023 178.24 1.38184 178.24 1.85352C178.24 2.31836 177.864 2.70117 177.379 2.70117ZM176.641 11V3.80859H178.117V11H176.641ZM182.731 11.1436C180.633 11.1436 179.32 9.70117 179.32 7.39746V7.39062C179.32 5.11426 180.66 3.67188 182.711 3.67188C184.563 3.67188 185.685 4.86133 185.808 6.21484L185.814 6.2627H184.406L184.393 6.20801C184.235 5.50391 183.688 4.90918 182.725 4.90918C181.576 4.90918 180.831 5.86621 180.831 7.4043V7.41113C180.831 8.9834 181.59 9.90625 182.731 9.90625C183.641 9.90625 184.222 9.37988 184.399 8.60059L184.406 8.5459H185.828L185.821 8.59375C185.664 10.0361 184.461 11.1436 182.731 11.1436ZM187.722 13.3994C187.435 13.3994 187.127 13.3652 186.949 13.3311V12.1758C187.065 12.2031 187.236 12.2305 187.435 12.2305C188.132 12.2305 188.515 12.0459 188.761 11.3486L188.884 11.0068L186.266 3.80859H187.865L189.677 9.66016H189.725L191.536 3.80859H193.095L190.415 11.335C189.882 12.8252 189.13 13.3994 187.722 13.3994Z" fill="#98A2B3"/>
<path d="M97.0566 6.98047V7.00098C97.0566 7.82129 96.4072 8.4707 95.5938 8.4707H95.5732C94.7529 8.4707 94.1035 7.82129 94.1035 7.00098V6.98047C94.1035 6.16699 94.7529 5.51758 95.5732 5.51758H95.5938C96.4072 5.51758 97.0566 6.16699 97.0566 6.98047Z" fill="#667085"/>
</svg>
